<svg xmlns="http://www.w3.org/2000/svg" width="13.216" height="12.114" viewBox="0 0 13.216 12.114">
  <path id="fi-rr-envelope" d="M10.462,1H2.753A2.757,2.757,0,0,0,0,3.753v6.608a2.757,2.757,0,0,0,2.753,2.753h7.709a2.757,2.757,0,0,0,2.753-2.753V3.753A2.757,2.757,0,0,0,10.462,1ZM2.753,2.1h7.709A1.652,1.652,0,0,1,11.993,3.14L7.776,7.358a1.656,1.656,0,0,1-2.337,0L1.222,3.14A1.652,1.652,0,0,1,2.753,2.1Zm7.709,9.912H2.753A1.652,1.652,0,0,1,1.1,10.361V4.579L4.661,8.136a2.757,2.757,0,0,0,3.894,0l3.559-3.557v5.782A1.652,1.652,0,0,1,10.462,12.013Z" transform="translate(0 -1)" fill="#22c7b8"/>
</svg>
