<svg id="Group_4490" data-name="Group 4490" xmlns="http://www.w3.org/2000/svg" width="18.161" height="15.715" viewBox="0 0 18.161 15.715">
  <g id="Group_4489" data-name="Group 4489" transform="translate(0 0)">
    <path id="Path_8839" data-name="Path 8839" d="M15.582,28.622H12.5V27.306a1.087,1.087,0,0,0-1.052-1.122q-.046,0-.092,0H6.8a1.087,1.087,0,0,0-1.143,1.029q0,.046,0,.092v1.308H2.578A2.423,2.423,0,0,0,0,31.193V39.32A2.423,2.423,0,0,0,2.578,41.9h13a2.423,2.423,0,0,0,2.578-2.578V31.2A2.422,2.422,0,0,0,15.582,28.622ZM6.4,27.306a.35.35,0,0,1,.4-.4H11.36c.4,0,.4.288.4.4v1.308H6.4ZM17.413,39.32a1.679,1.679,0,0,1-1.831,1.831h-13A1.68,1.68,0,0,1,.747,39.32V31.2a1.679,1.679,0,0,1,1.831-1.831h13A1.68,1.68,0,0,1,17.413,31.2Z" transform="translate(0 -26.184)" fill="#22c7b8"/>
  </g>
</svg>
