<svg xmlns="http://www.w3.org/2000/svg" width="10.411" height="13.881" viewBox="0 0 10.411 13.881">
  <g id="fi-rr-user" transform="translate(-3)">
    <path id="Path_997" data-name="Path 997" d="M9.47,6.941A3.47,3.47,0,1,0,6,3.47a3.47,3.47,0,0,0,3.47,3.47Zm0-5.784A2.314,2.314,0,1,1,7.157,3.47,2.314,2.314,0,0,1,9.47,1.157Z" transform="translate(-1.265)" fill="#fff"/>
    <path id="Path_998" data-name="Path 998" d="M8.206,14A5.211,5.211,0,0,0,3,19.206a.578.578,0,0,0,1.157,0,4.049,4.049,0,1,1,8.1,0,.578.578,0,0,0,1.157,0A5.211,5.211,0,0,0,8.206,14Z" transform="translate(0 -5.903)" fill="#fff"/>
  </g>
</svg>
